<?xml version="1.0" standalone="no"?><!DOCTYPE svg PUBLIC "-//W3C//DTD SVG 1.1//EN" "http://www.w3.org/Graphics/SVG/1.1/DTD/svg11.dtd"><svg t="1532254232693" class="icon" style="" viewBox="0 0 1024 1024" version="1.1" xmlns="http://www.w3.org/2000/svg" p-id="2086" xmlns:xlink="http://www.w3.org/1999/xlink" width="200" height="200"><defs><style type="text/css"></style></defs><path d="M383.201565 384.888997c0 9.05626 0.933255 17.968234 2.738367 26.632567l94.377484 0 0-46.693462-95.570659 0C383.727545 371.404891 383.201565 378.1055 383.201565 384.888997z" p-id="2087"></path><path d="M410.43072 305.47532l69.885674 0 0-45.883003c-22.220071 5.67014-42.59819 17.21201-59.238173 33.851992C417.257196 297.265334 413.7053 301.283858 410.43072 305.47532z" p-id="2088"></path><path d="M421.078221 476.332662c16.639982 16.639982 37.017078 28.180829 59.238173 33.851992l0-39.311331-64.385403 0C417.590793 472.731648 419.301761 474.556203 421.078221 476.332662z" p-id="2089"></path><path d="M603.966575 293.444309c-17.895579-17.895579-40.113603-29.890774-64.298422-35.030841l0 47.061852 74.945923 0C611.339496 301.283858 607.7876 297.265334 603.966575 293.444309z" p-id="2090"></path><path d="M539.668153 511.363504c24.184819-5.140067 46.402843-17.135262 64.298422-35.030841 1.77646-1.77646 3.487428-3.601015 5.14723-5.460362l-69.445652 0L539.668153 511.363504z" p-id="2091"></path><path d="M893.598045 127.693264 128.708384 127.693264l0.203638 697.739285c0.002047 5.451152 1.330298 10.82044 3.872191 15.643282l52.716642 100.036367c5.498224 10.383488 16.284895 16.877389 28.034497 16.877389l679.475316 0 0-63.444984L232.632291 894.544603l-32.201399-60.812017 693.167153 0L893.598045 127.693264zM704.001919 704.317097 320.063573 704.317097l0-61.395302 383.938346 0L704.001919 704.317097zM512.521886 577.654302c-106.461707 0-192.766328-86.304621-192.766328-192.766328s86.304621-192.766328 192.766328-192.766328 192.766328 86.304621 192.766328 192.766328S618.983593 577.654302 512.521886 577.654302z" p-id="2092"></path><path d="M539.668153 364.827079l0 46.693462 99.437733 0c1.804089-8.664334 2.738367-17.576307 2.738367-26.632567 0-6.782473-0.525979-13.483082-1.545192-20.060895L539.668153 364.827079z" p-id="2093"></path></svg>